HIERARCHY
ROOT Hips
{
  OFFSET -1.56614 0.00 -1.85809
  CHANNELS 6 Xposition Yposition Zposition Zrotation Xrotation Yrotation
  JOINT LHipJoint
  {
    OFFSET 0 0 0
    CHANNELS 3 Zrotation Xrotation Yrotation
    JOINT LeftUpLeg
    {
      OFFSET 1.8 -1.4 0.085
      CHANNELS 3 Zrotation Xrotation Yrotation
      JOINT LeftLeg
      {
        OFFSET 2.215 -6 0
        CHANNELS 3 Zrotation Xrotation Yrotation
        JOINT LeftFoot
        {
          OFFSET 2.5 -6.9 0
          CHANNELS 3 Zrotation Xrotation Yrotation
          JOINT LeftToeBase
          {
            OFFSET 0.2 -0.5 1.95
            CHANNELS 3 Zrotation Xrotation Yrotation
            End Site
            {
              OFFSET 0 0 1
            }
          }
        }
      }
    }
  }
  JOINT RHipJoint
  {
    OFFSET 0 0 0
    CHANNELS 3 Zrotation Xrotation Yrotation
    JOINT RightUpLeg
    {
      OFFSET -1.8 -1.4 0.085
      CHANNELS 3 Zrotation Xrotation Yrotation
      JOINT RightLeg
      {
        OFFSET -2.215 -6 0
        CHANNELS 3 Zrotation Xrotation Yrotation
        JOINT RightFoot
        {
          OFFSET -2.5 -6.9 0
          CHANNELS 3 Zrotation Xrotation Yrotation
          JOINT RightToeBase
          {
            OFFSET -0.2 -0.5 1.95
            CHANNELS 3 Zrotation Xrotation Yrotation
            End Site
            {
              OFFSET 0 0 1
            }
          }
        }
      }
    }
  }
  JOINT LowerBack
  {
    OFFSET 0 0 0
    CHANNELS 3 Zrotation Xrotation Yrotation
    JOINT Spine
    {
      OFFSET -0.087 1.94 -0.2889
      CHANNELS 3 Zrotation Xrotation Yrotation
      JOINT Spine1
      {
        OFFSET 0 1.95 0.06
        CHANNELS 3 Zrotation Xrotation Yrotation
        JOINT Neck
        {
          OFFSET 0 0 0
          CHANNELS 3 Zrotation Xrotation Yrotation
          JOINT Neck1
          {
            OFFSET 0 1.6 0.34
            CHANNELS 3 Zrotation Xrotation Yrotation
            JOINT Head
            {
              OFFSET 0 1.667 -0.24
              CHANNELS 3 Zrotation Xrotation Yrotation
              End Site
              {
                OFFSET 0 1.686 -0.12
              }
            }
          }
        }
        JOINT LeftShoulder
        {
          OFFSET 0 0 0
          CHANNELS 3 Zrotation Xrotation Yrotation
          JOINT LeftArm
          {
            OFFSET 2.7 1.55 -0.73
            CHANNELS 3 Zrotation Xrotation Yrotation
            JOINT LeftForeArm
            {
              OFFSET 5.45 0 0
              CHANNELS 3 Zrotation Xrotation Yrotation
              JOINT LeftHand
              {
                OFFSET 3.45 0 0
                CHANNELS 3 Zrotation Xrotation Yrotation
                JOINT LeftFingerBase
                {
                  OFFSET 0 0 0
                  CHANNELS 3 Zrotation Xrotation Yrotation
                  JOINT LeftHandIndex1
                  {
                    OFFSET 0.75 0 0
                    CHANNELS 3 Zrotation Xrotation Yrotation
                    End Site
                    {
                      OFFSET 0.6 0 0
                    }
                  }
                }
                JOINT LThumb
                {
                  OFFSET 0 0 0
                  CHANNELS 3 Zrotation Xrotation Yrotation
                  End Site
                  {
                    OFFSET 0.59 0 0.59
                  }
                }
              }
            }
          }
        }
        JOINT RightShoulder
        {
          OFFSET 0 0 0
          CHANNELS 3 Zrotation Xrotation Yrotation
          JOINT RightArm
          {
            OFFSET -2.7 1.55 -0.73
            CHANNELS 3 Zrotation Xrotation Yrotation
            JOINT RightForeArm
            {
              OFFSET -5.45 0 0
              CHANNELS 3 Zrotation Xrotation Yrotation
              JOINT RightHand
              {
                OFFSET -3.45 0 0
                CHANNELS 3 Zrotation Xrotation Yrotation
                JOINT RightFingerBase
                {
                  OFFSET 0 0 0
                  CHANNELS 3 Zrotation Xrotation Yrotation
                  JOINT RightHandIndex1
                  {
                    OFFSET -0.75 0 0
                    CHANNELS 3 Zrotation Xrotation Yrotation
                    End Site
                    {
                      OFFSET -0.6 0 0
                    }
                  }
                }
                JOINT RThumb
                {
                  OFFSET 0 0 0
                  CHANNELS 3 Zrotation Xrotation Yrotation
                  End Site
                  {
                    OFFSET -0.59 0 0.59
                  }
                }
              }
            }
          }
        }
      }
    }
  }
}
MOTION
Frames:	10
Frame Time:	0.00833333
1.19075 18.1961 5.26588 7.68532 -4.3624 142.394 2.20695e-032 -3.97569e-016 3.18055e-015 -21.9184 -18.4374 -4.68484 -7.90345 26.9958 5.38124 19.6863 -14.8726 50.4044 -1.2921e-015 -1.59028e-015 1.59028e-015 2.20695e-032 -3.97569e-016 3.18055e-015 6.11166 -13.2728 -0.493482 -1.51201 1.98606 -19.5639 15.787 50.7769 -29.8464 1.65521e-032 -5.96354e-016 1.59028e-015 2.20695e-032 -3.97569e-016 3.18055e-015 2.22053 0.911038 -0.101194 -3.08111 0.700055 0.435173 -5.77646 -10.3103 -10.3908 -2.20544 26.3422 -9.77445 34.3113 1.23285 -47.2305 34.4886 -4.83815 -18.2615 -101.294 12.6886 39.6449 83.2021 29.4236 -61.7595 56.094 -12.3087 -21.7922 -1.59028e-015 -3.18055e-015 -0 -1.59028e-015 -1.59028e-015 3.18055e-015 -1.59028e-015 -3.18055e-015 -0 -33.1042 -1.95096 5.83017 82.3655 -0.852178 -18.6702 -160.051 14.7775 122.21 -20.9976 1.45363 -37.1657 1.64534e-006 -7.81779e-007 8.83036e-007 -6.36111e-015 1.59028e-015 3.18055e-015 -6.36111e-015 -1.59028e-015 -3.18055e-015 
1.19102 18.1962 5.3146 7.6675 -4.10672 140.179 1.19271e-015 3.97569e-016 -0 -21.7012 -18.1771 -4.39151 -7.84233 26.2166 6.84064 19.3866 -15.2153 50.644 -6.95746e-016 1.59028e-015 1.59028e-015 1.19271e-015 3.97569e-016 -0 6.10236 -12.6795 -0.628589 -1.4882 1.99898 -19.4773 15.0931 50.8177 -29.4377 -1.59028e-015 5.56597e-015 3.18055e-015 1.19271e-015 3.97569e-016 -0 2.15206 1.23411 -0.274574 -2.8692 0.829164 0.227697 -5.78641 -10.2245 -10.2723 -2.263 26.4347 -9.64552 34.0134 1.38854 -46.9051 34.0795 -4.90887 -18.9197 -99.3004 11.6003 40.0697 82.9527 30.4304 -62.1072 56.6082 -12.7209 -22.4569 -6.36111e-015 -1.59028e-015 -3.18055e-015 -7.15625e-015 -3.18055e-015 -3.18055e-015 -6.36111e-015 -1.59028e-015 -3.18055e-015 -32.8571 -2.25047 7.38486 80.5531 -3.17067 -20.7898 -160.771 14.5642 122.944 -20.7735 1.2835 -36.1933 1.64534e-006 -7.81779e-007 8.83036e-007 9.54166e-015 -3.18055e-015 -3.18055e-015 -6.36111e-015 6.36111e-015 -0 
1.19099 18.205 5.37003 7.63023 -3.83968 137.918 1.98785e-015 0 3.18055e-015 -21.2759 -17.9631 -4.02544 -8.04011 25.6844 7.73308 18.949 -15.4702 51.3954 5.46658e-015 -7.95139e-016 1.59028e-015 1.98785e-015 0 3.18055e-015 6.10015 -12.1005 -0.752748 -1.49056 1.95247 -19.5612 14.3775 50.7503 -28.9623 1.59028e-015 1.98785e-016 7.95139e-016 1.98785e-015 0 3.18055e-015 2.07768 1.53153 -0.401609 -2.68968 0.988794 0.0736091 -5.80876 -10.1426 -10.1338 -2.34223 26.5246 -9.4901 33.7091 1.52909 -46.5123 33.7994 -4.99183 -19.5366 -97.3163 10.4066 40.3075 83.0949 31.6392 -62.5333 57.2235 -13.0694 -22.8096 -1.59028e-015 0 1.59028e-015 -1.98785e-015 0 4.77083e-015 -1.59028e-015 0 1.59028e-015 -32.3575 -2.48437 8.84823 78.4446 -5.26092 -22.9199 -161.311 14.4275 123.621 -21.2587 1.31157 -34.7738 1.64534e-006 -7.81779e-007 8.83036e-007 -9.54166e-015 3.18055e-015 -3.18055e-015 -0 -3.18055e-015 -0 
1.18958 18.2248 5.42944 7.59353 -3.55387 135.606 -7.95139e-016 -3.97569e-016 -6.36111e-015 -20.7246 -17.7607 -3.61055 -8.4134 25.372 8.05427 18.4145 -15.634 52.6963 -9.93923e-017 7.95139e-016 -0 -7.95139e-016 -3.97569e-016 -6.36111e-015 6.11069 -11.5005 -0.86971 -1.52342 1.8304 -19.8574 13.4688 50.538 -28.2984 -2.38542e-015 -1.46604e-014 -1.59028e-015 -7.95139e-016 -3.97569e-016 -6.36111e-015 2.03398 1.78775 -0.475774 -2.56851 1.24022 -0.0146789 -5.84465 -10.083 -9.96839 -2.44708 26.5933 -9.29912 33.3757 1.64083 -46.0104 33.7728 -5.12857 -20.1831 -95.5225 9.07823 40.3699 83.6458 32.9764 -63.0416 58.0545 -13.4042 -22.8508 -4.77083e-015 4.77083e-015 -0 -6.75868e-015 4.77083e-015 -0 -5.1684e-015 4.77083e-015 1.59028e-015 -31.5643 -2.66042 10.2565 76.0359 -7.12069 -25.106 -161.61 14.3997 124.156 -22.6886 1.53739 -32.4444 1.64534e-006 -7.81779e-007 8.83036e-007 -3.18055e-015 0 -3.18055e-015 -1.76556e-031 -3.18055e-015 -3.18055e-015 
1.18943 18.2526 5.49333 7.57013 -3.25201 133.276 1.59028e-015 -3.97569e-016 3.18055e-015 -20.0141 -17.5739 -3.13065 -8.96125 25.2067 8.09299 17.6722 -15.7122 54.1806 2.28602e-015 0 -1.59028e-015 1.59028e-015 -3.97569e-016 3.18055e-015 6.15922 -10.8922 -0.969813 -1.56458 1.68774 -20.2076 12.5284 50.2929 -27.6048 -7.95139e-016 6.33005e-015 2.98177e-016 1.59028e-015 -3.97569e-016 3.18055e-015 2.00216 2.02892 -0.517277 -2.47995 1.53427 -0.0635208 -5.87998 -10.0391 -9.77345 -2.56312 26.6478 -9.07432 33.0005 1.75665 -45.3867 33.8174 -5.26426 -20.7711 -93.7208 7.71324 40.2941 84.4259 34.4089 -63.6539 59.0053 -13.7228 -22.6996 4.77083e-015 -3.18055e-015 -3.18055e-015 2.38542e-015 3.18055e-015 -3.18055e-015 3.97569e-015 -3.18055e-015 -1.59028e-015 -30.5721 -2.78961 11.6046 73.4032 -8.78467 -27.3044 -161.993 14.2904 124.64 -24.3492 1.78539 -29.7414 1.64534e-006 -7.81779e-007 8.83036e-007 -1.05934e-030 -6.36111e-015 -9.54166e-015 -3.18055e-015 6.36111e-015 -0 
1.19353 18.2837 5.56475 7.55114 -2.94575 130.953 -3.97569e-016 3.97569e-016 -6.36111e-015 -19.0388 -17.4388 -2.55008 -9.78505 25.1662 8.07906 16.5977 -15.7149 55.5358 2.08724e-015 -7.95139e-016 1.59028e-015 -3.97569e-016 3.97569e-016 -6.36111e-015 6.25803 -10.3189 -1.0424 -1.59195 1.58105 -20.4524 11.8376 50.139 -27.1144 -1.59028e-015 -8.62228e-015 -1.98785e-016 -3.97569e-016 3.97569e-016 -6.36111e-015 1.93184 2.28983 -0.547635 -2.3796 1.77433 -0.104781 -5.90325 -9.98771 -9.55347 -2.67595 26.711 -8.82567 32.5945 1.91594 -44.6725 33.678 -5.31902 -21.1651 -91.5967 6.40501 40.0985 85.3047 35.9812 -64.4213 59.8975 -13.9773 -22.443 7.95139e-015 0 -3.18055e-015 5.56597e-015 -3.18055e-015 -4.77083e-015 7.95139e-015 0 -1.59028e-015 -29.498 -2.87358 12.8531 70.6362 -10.2842 -29.4355 -162.759 13.9208 125.22 -25.4635 1.9194 -27.5177 1.64534e-006 -7.81779e-007 8.83036e-007 0 0 -1.59028e-015 -0 0 3.18055e-015 
1.20483 18.3138 5.64664 7.52701 -2.64607 128.661 -1.19271e-015 9.93923e-016 -6.36111e-015 -17.688 -17.3941 -1.83414 -10.9977 25.234 8.24829 15.0716 -15.691 56.4685 -8.54774e-015 1.59028e-015 -0 -1.19271e-015 9.93923e-016 -6.36111e-015 6.41739 -9.81399 -1.08029 -1.57795 1.54594 -20.4172 11.6903 50.2338 -27.0846 -9.93923e-016 2.48481e-016 -0 -1.19271e-015 9.93923e-016 -6.36111e-015 1.7777 2.60635 -0.586507 -2.22612 1.86509 -0.167698 -5.90414 -9.90645 -9.31259 -2.7727 26.8053 -8.56217 32.1646 2.15905 -43.8978 33.1105 -5.21517 -21.2324 -88.8443 5.24791 39.7919 86.1722 37.7318 -65.4179 60.5504 -14.1166 -22.1601 -3.97569e-015 0 -3.18055e-015 7.95139e-016 6.36111e-015 -1.59028e-015 -4.77083e-015 0 -1.59028e-015 -28.4556 -2.91473 13.9694 67.8284 -11.6576 -31.4285 -164.146 13.1345 126.021 -25.3176 1.82215 -26.6228 1.64534e-006 -7.81779e-007 8.83036e-007 -1.59028e-015 0 -0 4.77083e-015 6.36111e-015 6.36111e-015 
1.22393 18.3434 5.73845 7.51004 -2.36519 126.365 1.19271e-015 1.98785e-016 -0 -15.8555 -17.5065 -0.987958 -12.8656 25.4875 8.81184 13.2051 -15.8368 57.0638 2.98177e-015 -1.59028e-015 -0 1.19271e-015 1.98785e-016 -0 6.62033 -9.23825 -1.13109 -1.45261 1.29412 -19.8012 12.5631 51.0712 -28.1214 -1.14301e-015 3.66509e-015 7.95139e-016 1.19271e-015 1.98785e-016 -0 1.58722 3.01107 -0.614656 -2.05036 1.78327 -0.226149 -5.89136 -9.79807 -9.04603 -2.8649 26.9277 -8.27547 31.6819 2.49281 -43.0552 32.1402 -4.9355 -20.9622 -85.4971 4.27238 39.3523 87.13 39.6317 -66.7826 60.8948 -14.0846 -21.7651 3.18055e-015 9.54166e-015 -1.59028e-015 7.95139e-016 -3.18055e-015 -1.59028e-015 2.38542e-015 9.54166e-015 -0 -27.4446 -2.92088 15.041 65.0281 -12.9388 -33.3851 -165.529 12.4336 126.975 -24.8722 1.82578 -27.3733 1.64534e-006 -7.81779e-007 8.83036e-007 -1.59028e-015 3.18055e-015 -6.36111e-015 4.77083e-015 3.18055e-015 -0 
1.24871 18.3745 5.83909 7.49339 -2.09014 124.082 -0 0 9.54166e-015 -13.6858 -17.6927 -0.0227023 -15.1004 25.8627 9.45918 10.9548 -15.9846 57.4088 -4.96962e-015 3.18055e-015 1.59028e-015 -0 0 9.54166e-015 6.87503 -8.69783 -1.15651 -1.28535 1.06029 -18.9666 13.9488 52.1041 -29.614 -1.59028e-015 -8.99501e-015 -7.95139e-016 -0 0 9.54166e-015 1.34246 3.45568 -0.638693 -1.84788 1.60084 -0.287676 -5.86364 -9.67189 -8.75602 -2.95029 27.0687 -7.9677 31.1592 2.89727 -42.1368 30.8702 -4.53502 -20.4369 -81.7032 3.38704 38.7803 88.249 41.6479 -68.491 61.0852 -13.9562 -21.2925 -7.95139e-016 6.36111e-015 1.59028e-015 1.59028e-015 3.18055e-015 -1.59028e-015 -1.59028e-015 6.36111e-015 3.18055e-015 -26.4106 -2.88586 16.0072 62.1848 -14.0918 -35.2432 -167.3 11.4108 128.045 -23.647 1.69506 -29.0309 1.64534e-006 -7.81779e-007 8.83036e-007 2.64834e-031 3.18055e-015 -4.77083e-015 0 0 -2.38542e-015 
1.27699 18.4076 5.94828 7.46132 -1.80489 121.86 -1.39149e-015 1.59028e-015 3.18055e-015 -11.3924 -17.8232 1.05782 -17.2173 26.2412 9.748 8.16913 -15.8413 57.4836 -1.19271e-015 0 1.59028e-015 -1.39149e-015 1.59028e-015 3.18055e-015 7.20096 -8.40801 -1.08177 -1.21711 1.30933 -18.4768 14.8657 52.4828 -30.3911 -7.95139e-016 4.47266e-015 -2.38542e-015 -1.39149e-015 1.59028e-015 3.18055e-015 0.984257 3.87218 -0.682357 -1.58573 1.3944 -0.383395 -5.81203 -9.5321 -8.44899 -3.01649 27.2239 -7.64838 30.6298 3.35425 -41.1453 29.3504 -4.07074 -19.7293 -77.5481 2.48674 38.0944 89.5293 43.7759 -70.4572 61.3056 -13.8426 -20.851 4.77083e-015 0 1.59028e-015 7.95139e-016 3.18055e-015 1.59028e-015 3.97569e-015 0 3.18055e-015 -25.3164 -2.79895 16.7366 59.2522 -15.0816 -36.8462 -170.289 9.20357 129.164 -20.3815 0.953124 -30.7351 1.64534e-006 -7.81779e-007 8.83036e-007 3.97569e-015 3.18055e-015 -4.77083e-015 7.95139e-016 0 -1.59028e-015 
